<svg width="268" height="387" viewBox="0 0 268 387" fill="none" xmlns="http://www.w3.org/2000/svg">
<g opacity="0.7">
<path opacity="0.7" d="M211.42 207.326C216.041 194.759 217.538 181.256 215.783 167.979C214.932 161.734 213.599 157.565 212.388 154.856C211.932 153.804 211.157 152.922 210.173 152.333C209.189 151.744 208.045 151.479 206.902 151.574C206.019 151.566 205.146 151.765 204.353 152.153C200.748 153.911 197.077 156.634 193.64 159.698C183.365 168.898 175.546 180.511 170.888 193.489L168.06 201.261L163.07 199.445L195.962 109.074C202.855 90.1368 205.413 69.9126 203.122 50.3169C202.041 41.0312 200.219 34.842 198.551 30.8409C198.159 29.8344 197.557 28.923 196.784 28.1676C196.012 27.4123 195.087 26.8303 194.071 26.4607C193.056 26.0911 191.973 25.9423 190.896 26.0243C189.818 26.1064 188.771 26.4173 187.824 26.9363C182.607 29.6371 177.275 33.7799 172.263 38.42C157.364 52.1682 145.932 69.7712 138.839 89.2602L106.274 178.733L101.962 177.164L104.928 169.016C109.696 156.087 111.167 142.173 109.21 128.531C108.532 123.968 107.47 119.523 105.854 115.864C105.39 114.787 104.593 113.886 103.579 113.294C102.566 112.702 101.389 112.45 100.223 112.575L100.369 112.736C99.6357 112.787 98.9191 112.978 98.258 113.299C95.5925 114.603 91.8929 116.934 87.2267 121.172C77.3478 130.214 69.8155 141.52 65.2773 154.118L16.1241 289.165L31.5198 294.768L25.7814 305.25L13.6977 338.45L26.2896 343.033L38.3733 309.833L40.7319 298.116L55.9064 303.639L100.674 180.64L104.985 182.21L60.4113 304.676L72.7068 309.151L66.7075 320.146L54.6239 353.346L67.2157 357.929L79.2994 324.729L81.7768 312.435L98.3583 318.47L92.3435 329.477L80.2599 362.676L92.8518 367.26L104.935 334.06L107.413 321.766L117.231 325.339L161.794 202.903L166.784 204.719L121.948 327.903L125.993 329.376L126.061 329.19L139.437 334.058L133.722 344.537L121.638 377.737L134.23 382.32L146.314 349.12L148.672 337.403L162.274 342.353L211.42 207.326Z" fill="url(#paint0_linear_2118_152)"/>
</g>
<path d="M43.2204 304.286L31.2968 299.946L38.6916 286.258L46.3542 289.047L43.2204 304.286Z" fill="#535461"/>
<g opacity="0.1">
<path opacity="0.1" d="M36.0082 291.786L44.8567 295.006L45.7348 290.749L38.0721 287.96L36.0082 291.786Z" fill="black"/>
</g>
<path d="M145.398 341.476L133.479 337.138L140.869 323.448L148.536 326.238L145.398 341.476Z" fill="#535461"/>
<g opacity="0.1">
<path opacity="0.1" d="M138.185 328.975L147.039 332.197L147.917 327.94L140.249 325.149L138.185 328.975Z" fill="black"/>
</g>
<path d="M81.9607 318.386L70.0422 314.048L77.432 300.358L85.0996 303.149L81.9607 318.386Z" fill="#535461"/>
<g opacity="0.1">
<path opacity="0.1" d="M74.7487 305.886L83.6021 309.108L84.4801 304.851L76.8125 302.06L74.7487 305.886Z" fill="black"/>
</g>
<path d="M106.23 327.22L94.3114 322.882L101.701 309.192L109.364 311.981L106.23 327.22Z" fill="#535461"/>
<g opacity="0.1">
<path opacity="0.1" d="M99.018 314.719L107.871 317.942L108.744 313.683L101.082 310.894L99.018 314.719Z" fill="black"/>
</g>
<path d="M177.138 201.285L91.9899 170.293L90.751 173.697L175.899 204.688L177.138 201.285Z" fill="#535461"/>
<path d="M209.864 152.317C209.595 151.656 209.191 151.06 208.677 150.565C208.163 150.07 207.551 149.689 206.881 149.445C206.21 149.201 205.496 149.1 204.785 149.149C204.073 149.197 203.38 149.394 202.749 149.727C199.311 151.466 195.8 154.14 192.495 157.138C182.634 166.192 175.12 177.505 170.601 190.104L122.939 321.055L160.624 334.771L208.487 203.268C212.986 191.056 214.524 177.95 212.978 165.025C212.216 158.972 210.997 154.912 209.864 152.317Z" fill="#E0E0E0"/>
<path d="M101.798 112.984C102.429 112.651 103.122 112.454 103.834 112.405C104.545 112.357 105.259 112.458 105.929 112.702C106.6 112.946 107.212 113.327 107.725 113.822C108.239 114.316 108.644 114.913 108.913 115.573C110.434 119.117 111.4 123.42 112.009 127.844C113.741 141.119 112.225 154.613 107.591 167.171L59.929 298.121L22.2438 284.405L70.1069 152.902C74.511 140.655 81.7563 129.626 91.2492 120.72C95.7185 116.57 99.2624 114.244 101.798 112.984Z" fill="#E0E0E0"/>
<path d="M69.3071 155.772L78.2345 159.073L74.2256 170.087L65.2816 166.832L69.3071 155.772Z" fill="#535461"/>
<path d="M97.8322 166.154L106.76 169.455L102.751 180.469L93.8068 177.214L97.8322 166.154Z" fill="#535461"/>
<path d="M169.786 192.343L178.708 195.642L174.699 206.657L165.76 203.403L169.786 192.343Z" fill="#535461"/>
<path d="M198.311 202.726L207.234 206.024L203.225 217.039L194.286 213.785L198.311 202.726Z" fill="#535461"/>
<g opacity="0.1">
<path opacity="0.1" d="M112.072 127.673C111.462 123.25 110.496 118.947 108.975 115.403C108.557 114.371 107.812 113.505 106.853 112.938C105.895 112.37 104.777 112.132 103.671 112.261C104.112 112.726 104.467 113.265 104.719 113.854C106.235 117.396 107.206 121.701 107.811 126.122C109.545 139.397 108.029 152.893 103.392 165.449L55.7338 296.39L59.9948 297.94L107.651 167.005C112.287 154.446 113.804 140.95 112.072 127.673V127.673Z" fill="black"/>
</g>
<g opacity="0.1">
<path opacity="0.1" d="M195.832 158.569C199.137 155.57 202.648 152.897 206.087 151.158C206.732 150.826 207.438 150.63 208.162 150.583C207.388 149.845 206.401 149.369 205.342 149.222C204.282 149.075 203.203 149.265 202.258 149.764C198.814 151.501 195.303 154.175 191.998 157.173C182.139 166.229 174.626 177.542 170.104 190.14L122.439 321.1L126.272 322.496L173.934 191.545C178.454 178.942 185.968 167.626 195.832 158.569V158.569Z" fill="black"/>
</g>
<path d="M25.6543 334.507L25.3277 334.388C23.7899 333.828 22.5372 332.681 21.8452 331.199C21.1532 329.716 21.0786 328.02 21.6379 326.484L31.2968 299.946L43.2204 304.286L33.5615 330.824C33.0022 332.36 31.855 333.611 30.3721 334.302C28.8892 334.993 27.1922 335.066 25.6543 334.507Z" fill="url(#paint1_linear_2118_152)"/>
<path d="M64.3998 348.609L64.0681 348.488C62.5316 347.927 61.2804 346.78 60.5895 345.298C59.8985 343.817 59.8244 342.122 60.3833 340.586L70.0422 314.048L81.9607 318.386L72.3019 344.924C71.7429 346.46 70.5967 347.71 69.1149 348.401C67.6332 349.092 65.9372 349.167 64.3998 348.609Z" fill="url(#paint2_linear_2118_152)"/>
<path d="M88.664 357.44L88.3273 357.318C86.7935 356.755 85.5453 355.607 84.8564 354.127C84.1676 352.646 84.0942 350.953 84.6525 349.419L94.3114 322.882L106.23 327.22L96.5711 353.757C96.0119 355.294 94.8646 356.545 93.3817 357.236C91.8989 357.926 90.2018 358 88.664 357.44Z" fill="url(#paint3_linear_2118_152)"/>
<path d="M127.837 371.698L127.52 371.583C126.757 371.307 126.056 370.883 125.457 370.336C124.858 369.789 124.373 369.129 124.03 368.395C123.686 367.66 123.491 366.865 123.455 366.056C123.419 365.246 123.543 364.437 123.82 363.675L133.479 337.138L145.398 341.476L135.739 368.013C135.18 369.549 134.033 370.8 132.552 371.49C131.07 372.181 129.374 372.256 127.837 371.698Z" fill="url(#paint4_linear_2118_152)"/>
<path d="M197.933 31.696C197.58 30.7293 197.019 29.8514 196.291 29.1239C195.562 28.3964 194.683 27.837 193.716 27.4848C192.748 27.1326 191.715 26.9962 190.689 27.0852C189.664 27.1742 188.67 27.4864 187.778 27.9999C182.821 30.6757 177.703 34.7314 172.864 39.2698C158.593 52.7464 147.58 69.9333 140.673 88.9102L64.1827 299.067L117.947 318.635L194.745 107.635C201.456 89.1956 204.064 69.5238 202.071 50.5482C201.16 41.558 199.489 35.5656 197.933 31.696Z" fill="#EEEEEE"/>
<path d="M192.3 56.083L175.297 49.8942C172.244 48.7831 168.87 50.3549 167.76 53.4048L167.104 55.2071C165.993 58.257 167.568 61.6302 170.621 62.7412L187.624 68.93C190.677 70.0411 194.051 68.4693 195.161 65.4194L195.817 63.6171C196.928 60.5671 195.353 57.194 192.3 56.083Z" fill="#535461"/>
<g opacity="0.1">
<path opacity="0.1" d="M191.567 115.57L138.35 96.2003L137.599 98.2637L190.816 117.633L191.567 115.57Z" fill="black"/>
</g>
<defs>
<linearGradient id="paint0_linear_2118_152" x1="-4312.54" y1="265438" x2="76310.6" y2="43927.6" gradientUnits="userSpaceOnUse">
<stop stop-color="#808080" stop-opacity="0.25"/>
<stop offset="0.54" stop-color="#808080" stop-opacity="0.12"/>
<stop offset="1" stop-color="#808080" stop-opacity="0.1"/>
</linearGradient>
<linearGradient id="paint1_linear_2118_152" x1="37.2611" y1="302.117" x2="25.4936" y2="334.448" gradientUnits="userSpaceOnUse">
<stop stop-color="#E0E0E0"/>
<stop offset="0.31" stop-color="#FCCC63"/>
<stop offset="0.77" stop-color="#F55F44"/>
</linearGradient>
<linearGradient id="paint2_linear_2118_152" x1="-956.496" y1="22939.1" x2="-1714.32" y2="25021.3" gradientUnits="userSpaceOnUse">
<stop stop-color="#E0E0E0"/>
<stop offset="0.31" stop-color="#FCCC63"/>
<stop offset="0.77" stop-color="#F55F44"/>
</linearGradient>
<linearGradient id="paint3_linear_2118_152" x1="-356.543" y1="23157.5" x2="-1114.37" y2="25239.6" gradientUnits="userSpaceOnUse">
<stop stop-color="#E0E0E0"/>
<stop offset="0.31" stop-color="#FCCC63"/>
<stop offset="0.77" stop-color="#F55F44"/>
</linearGradient>
<linearGradient id="paint4_linear_2118_152" x1="611.646" y1="23509.9" x2="-146.183" y2="25592.1" gradientUnits="userSpaceOnUse">
<stop stop-color="#E0E0E0"/>
<stop offset="0.31" stop-color="#FCCC63"/>
<stop offset="0.77" stop-color="#F55F44"/>
</linearGradient>
</defs>
</svg>
